<svg width="26" height="26" viewBox="0 0 26 26" fill="none" xmlns="http://www.w3.org/2000/svg">
<path d="M22.6087 0C21.9844 0 21.4783 0.506113 21.4783 1.13043V2.26087H20.3478C19.7235 2.26087 19.2174 2.76699 19.2174 3.3913C19.2174 4.01562 19.7235 4.52174 20.3478 4.52174H21.4783V5.65217C21.4783 6.27649 21.9844 6.78261 22.6087 6.78261C23.2331 6.78261 23.7391 6.27649 23.7391 5.65217V4.52174H24.8696C25.4939 4.52174 26 4.01562 26 3.3913C26 2.76699 25.4939 2.26087 24.8696 2.26087H23.7391V1.13043C23.7391 0.506113 23.2331 0 22.6087 0Z" fill="#7F7F7F"/>
<path d="M24.2943 9.34946C24.111 8.7824 23.4685 8.53031 22.9204 8.76432C22.3723 8.99833 22.1207 9.63272 22.2924 10.2034C22.8334 12.0008 22.8435 13.925 22.3091 15.7405C21.6727 17.9025 20.3034 19.7756 18.4366 21.0382C16.5697 22.3009 14.3216 22.8743 12.078 22.6602C9.83442 22.446 7.73534 21.4577 6.14102 19.8647C4.5467 18.2717 3.55658 16.1734 3.34059 13.93C3.1246 11.6866 3.69622 9.43795 4.95731 7.57004C6.21842 5.70213 8.09038 4.33141 10.2519 3.69316C12.0669 3.15722 13.9911 3.16581 15.7889 3.7053C16.3597 3.87658 16.9939 3.62436 17.2275 3.07608C17.461 2.52782 17.2084 1.88555 16.6413 1.70272C14.3769 0.972848 11.9363 0.937899 9.63864 1.61633C6.9948 2.39702 4.70511 4.0736 3.16259 6.35834C1.62007 8.64308 0.920896 11.3935 1.18508 14.1375C1.44928 16.8816 2.66034 19.4481 4.61043 21.3965C6.56052 23.345 9.12802 24.5539 11.8723 24.8158C14.6165 25.0778 17.3663 24.3763 19.6498 22.832C21.9332 21.2875 23.6079 18.9965 24.3865 16.352C25.0629 14.0538 25.026 11.6132 24.2943 9.34946Z" fill="#7F7F7F"/>
<path fill-rule="evenodd" clip-rule="evenodd" d="M10.1739 9.94781C10.1739 8.82403 11.0174 7.91302 12.0579 7.91302H14.884C15.4043 7.91302 15.8261 8.36853 15.8261 8.93042C15.8261 9.49231 15.4043 9.94781 14.884 9.94781H12.2464C12.1423 9.94781 12.0579 10.0389 12.0579 10.1513V11.7791C12.0579 11.8915 12.1423 11.9826 12.2464 11.9826H13.942C14.9826 11.9826 15.8261 12.8936 15.8261 14.0174V16.0522C15.8261 17.176 14.9826 18.0869 13.942 18.0869H12.0579C11.0174 18.0869 10.1739 17.176 10.1739 16.0522V9.94781ZM12.0579 15.0348C12.0579 15.5967 12.4797 16.0522 13 16.0522C13.5203 16.0522 13.942 15.5967 13.942 15.0348C13.942 14.4729 13.5203 14.0174 13 14.0174C12.4797 14.0174 12.0579 14.4729 12.0579 15.0348Z" fill="#7F7F7F"/>
</svg>
