<svg width="26" height="26" viewBox="0 0 26 26" fill="none" xmlns="http://www.w3.org/2000/svg">
<path d="M8 5.22222H7.00025C5.60011 5.22222 4.89953 5.22222 4.36475 5.46443C3.89434 5.67748 3.51216 6.01719 3.27249 6.43533C3 6.91069 3 7.53343 3 8.778V9.66667M8 5.22222H18M8 5.22222V3M3 9.66667V19.4447C3 20.6892 3 21.3112 3.27249 21.7866C3.51216 22.2047 3.89434 22.545 4.36475 22.758C4.899 23 5.59874 23 6.99614 23H19.0039C20.4013 23 21.1 23 21.6343 22.758C22.1046 22.545 22.4881 22.2047 22.7277 21.7866C23 21.3117 23 20.6906 23 19.4484V9.66667M3 9.66667H23M18 5.22222H19.0002C20.4004 5.22222 21.0995 5.22222 21.6343 5.46443C22.1046 5.67748 22.4881 6.01719 22.7277 6.43533C23 6.91022 23 7.53221 23 8.77434V9.66667M18 5.22222V3M18 18.5556H18.0025V18.5578H18V18.5556ZM13 18.5556H13.0025V18.5578H13V18.5556ZM8 18.5556H8.0025L8.00244 18.5578H8V18.5556ZM18.0025 14.1111V14.1133H18V14.1111H18.0025ZM13 14.1111H13.0025V14.1133H13V14.1111ZM8 14.1111H8.0025L8.00244 14.1133H8V14.1111Z" stroke="#7F7F7F" stroke-width="1.5" stroke-linecap="round" stroke-linejoin="round"/>
</svg>
