<svg width="70" height="70" viewBox="0 0 70 70" fill="none" xmlns="http://www.w3.org/2000/svg">
<path d="M9.35156 10.8375V10.837L9.34161 10.838C8.74925 10.8972 8.26719 11.3728 8.26719 11.9766V15.3125V17.6641V21.2734V30.0234V38.7734V47.5234V51.1328V57.9688V61.3594C8.26719 61.6675 8.4211 61.9384 8.63401 62.1367C8.84657 62.3346 9.12593 62.4679 9.39521 62.4978L9.39514 62.4984H9.40625C9.509 62.4984 9.6262 62.5113 9.75068 62.5252L9.75407 62.5256C9.87469 62.539 10.0023 62.5531 10.1172 62.5531H49.3828H49.4009C52.3129 62.5531 55.3171 62.5531 57.59 61.1714C59.8815 59.7784 61.4047 57.0015 61.4047 51.5156V48.125V39.9219V28.7656V25.1563V21.7656C61.4047 16.3073 59.8952 13.5439 57.6105 12.1577C55.3444 10.7828 52.3402 10.7828 49.4012 10.7828L49.3828 10.7828H10.1172L10.112 10.7828C9.90036 10.7828 9.67545 10.7828 9.44884 10.8375H9.35156ZM50.4219 38.7281H50.3219V38.7811C48.7835 38.7291 47.5688 37.4816 47.5688 35.9297V32.7031C47.5688 31.1177 48.8365 29.85 50.4219 29.85H59.1813V38.7281H50.4219ZM49.3828 60.2203H10.5453V59.1078H49.4375H49.442C51.0795 59.1078 52.754 59.1078 54.3068 58.8605C55.7088 58.6371 57.0186 58.2112 58.1184 57.3963C57.3902 58.7426 56.312 59.4447 54.9351 59.8136C53.4193 60.2196 51.5474 60.2203 49.3828 60.2203ZM59.1813 21.8203V25.2109V27.6813H50.4219C47.6323 27.6813 45.3453 29.9682 45.3453 32.7578V35.9844C45.3453 38.774 47.6323 41.0609 50.4219 41.0609H59.1813V48.0703C59.1813 52.4909 58.1982 54.6593 56.5135 55.7381C55.6669 56.2802 54.6329 56.5543 53.4328 56.6919C52.2322 56.8296 50.8746 56.8297 49.3828 56.8297H10.5453V52.2172H13.0156C13.6143 52.2172 14.1547 51.7383 14.1547 51.0781C14.1547 50.4795 13.6758 49.9391 13.0156 49.9391H10.5453V18.8031H13.0156C13.6143 18.8031 14.1547 18.3243 14.1547 17.6641C14.1547 17.0654 13.6758 16.525 13.0156 16.525H10.5453V16.2969V13.0063H49.4375C50.9157 13.0063 52.2629 13.0064 53.4558 13.1449C54.648 13.2833 55.6768 13.5591 56.5199 14.1045C58.1981 15.1899 59.1813 17.3722 59.1813 21.8203Z" fill="white" stroke="white" stroke-width="0.2"/>
<path d="M53.0016 47.4688V49.9391H50.5313C49.9326 49.9391 49.3922 50.4179 49.3922 51.0781H49.3918L49.3926 51.0872C49.4515 51.7353 49.9278 52.2172 50.5859 52.2172H54.1406C54.7393 52.2172 55.2797 51.7383 55.2797 51.0781V47.4688C55.2797 46.8701 54.8008 46.3297 54.1406 46.3297C53.542 46.3297 53.0016 46.8086 53.0016 47.4688Z" fill="white" stroke="white" stroke-width="0.2"/>
<path d="M28 49.9937H20.5078C19.9092 49.9937 19.3687 50.4726 19.3687 51.1328C19.3687 51.7315 19.8476 52.2719 20.5078 52.2719H28C28.5986 52.2719 29.1391 51.793 29.1391 51.1328C29.1391 50.476 28.6568 49.9937 28 49.9937Z" fill="white" stroke="white" stroke-width="0.2"/>
<path d="M43.0391 49.9937H35.5469C34.9482 49.9937 34.4078 50.4726 34.4078 51.1328C34.4078 51.7315 34.8867 52.2719 35.5469 52.2719H43.0391C43.6377 52.2719 44.1781 51.793 44.1781 51.1328C44.1781 50.476 43.6959 49.9937 43.0391 49.9937Z" fill="white" stroke="white" stroke-width="0.2"/>
<path d="M28 16.5797H20.5078C19.9092 16.5797 19.3687 17.0586 19.3687 17.7188C19.3687 18.3174 19.8476 18.8578 20.5078 18.8578H28C28.5986 18.8578 29.1391 18.3789 29.1391 17.7188C29.1391 17.062 28.6568 16.5797 28 16.5797Z" fill="white" stroke="white" stroke-width="0.2"/>
<path d="M43.0391 16.5797H35.5469C34.9482 16.5797 34.4078 17.0586 34.4078 17.7188C34.4078 18.3174 34.8867 18.8578 35.5469 18.8578H43.0391C43.6377 18.8578 44.1781 18.3789 44.1781 17.7188C44.1781 17.062 43.6959 16.5797 43.0391 16.5797Z" fill="white" stroke="white" stroke-width="0.2"/>
<path d="M54.1406 16.5797H50.5313C49.9326 16.5797 49.3922 17.0586 49.3922 17.7188C49.3922 18.3174 49.8711 18.8578 50.5313 18.8578H53.0016V21.3281C53.0016 21.9268 53.4804 22.4672 54.1406 22.4672C54.7393 22.4672 55.2797 21.9883 55.2797 21.3281V17.7188C55.2797 17.062 54.7974 16.5797 54.1406 16.5797Z" fill="white" stroke="white" stroke-width="0.2"/>
<path d="M51.8438 30.525C49.766 30.525 48.025 32.2094 48.025 34.3437C48.025 36.4771 49.7104 38.1625 51.8438 38.1625C53.9215 38.1625 55.6625 36.4781 55.6625 34.3437C55.6625 32.2094 53.9215 30.525 51.8438 30.525ZM50.2484 34.3437C50.2484 33.4714 50.9671 32.8031 51.7891 32.8031C52.6088 32.8031 53.3297 33.524 53.3297 34.3437C53.3297 35.1635 52.6088 35.8844 51.7891 35.8844C50.9671 35.8844 50.2484 35.2161 50.2484 34.3437Z" fill="white" stroke="white" stroke-width="0.2"/>
</svg>
