<svg width="87" height="87" viewBox="0 0 87 87" fill="none" xmlns="http://www.w3.org/2000/svg">
<g clip-path="url(#clip0_44_179)">
<path d="M86.5706 43.567L76.4788 32.0461C76.1497 31.6706 75.6746 31.4549 75.1752 31.4549H66.7717V24.34C66.7717 23.3828 65.9956 22.6069 65.0386 22.6069H29.2451C28.2881 22.6069 27.5121 23.3828 27.5121 24.34V26.6784H10.8441C9.88709 26.6784 9.11105 27.4543 9.11105 28.4115C9.11105 29.3686 9.88709 30.1445 10.8441 30.1445H27.5121V52.6099H17.4789C16.5219 52.6099 15.7458 53.3857 15.7458 54.3429C15.7458 55.3001 16.5219 56.0759 17.4789 56.0759H27.5121V57.8372C27.5121 58.7943 28.2881 59.5702 29.2451 59.5702H32.8624C33.6245 62.3466 36.1689 64.3929 39.184 64.3929C42.1991 64.3929 44.7435 62.3466 45.5058 59.5702H68.6303V59.57C69.3924 62.3464 71.9368 64.3928 74.9519 64.3928C77.967 64.3928 80.5114 62.3464 81.2736 59.57H85.2672C86.2242 59.57 87.0002 58.7942 87.0002 57.837V44.7087C87 44.2888 86.8473 43.8829 86.5706 43.567ZM39.184 60.9269C37.4804 60.9269 36.0945 59.5408 36.0945 57.8372C36.0945 56.1335 37.4804 54.7475 39.184 54.7475C40.8876 54.7475 42.2737 56.1335 42.2737 57.8372C42.2737 59.5408 40.8876 60.9269 39.184 60.9269ZM45.5054 56.1041C44.7433 53.3278 42.1987 51.2814 39.1837 51.2814C36.1686 51.2814 33.6243 53.3278 32.8621 56.1041H30.9778V26.0728H63.3049V56.1041H45.5054ZM74.9515 60.9269C73.2479 60.9269 71.862 59.5408 71.862 57.8372C71.862 56.1335 73.2479 54.7475 74.9515 54.7475C76.6552 54.7475 78.0412 56.1335 78.0412 57.8372C78.0412 59.5408 76.6553 60.9269 74.9515 60.9269ZM83.5339 56.1041H81.2733C80.5112 53.3278 77.9666 51.2814 74.9515 51.2814C71.9364 51.2814 69.3922 53.3278 68.6299 56.1041H66.7712V34.921H74.3889L83.5338 45.3605L83.5339 56.1041Z" fill="white"/>
<path d="M11.769 52.6097H10.8442C9.88724 52.6097 9.11121 53.3855 9.11121 54.3427C9.11121 55.2999 9.88724 56.0757 10.8442 56.0757H11.769C12.726 56.0757 13.502 55.2999 13.502 54.3427C13.502 53.3855 12.7261 52.6097 11.769 52.6097Z" fill="white"/>
<path d="M20.3057 39.4688H1.73303C0.776033 39.4688 0 40.2446 0 41.2018C0 42.159 0.776033 42.9348 1.73303 42.9348H20.3057C21.2627 42.9348 22.0387 42.159 22.0387 41.2018C22.0387 40.2446 21.2627 39.4688 20.3057 39.4688Z" fill="white"/>
</g>
<defs>
<clipPath id="clip0_44_179">
<rect width="87" height="87" fill="white"/>
</clipPath>
</defs>
</svg>
