<svg width="26" height="26" viewBox="0 0 26 26" fill="none" xmlns="http://www.w3.org/2000/svg">
<g clip-path="url(#clip0_39_145)">
<path d="M17.9786 13.2549C20.0292 13.2549 21.7937 11.4236 21.7937 9.03915C21.7937 6.68332 20.0197 4.93793 17.9786 4.93793C15.9376 4.93793 14.1635 6.72148 14.1635 9.05823C14.1635 11.4236 15.9281 13.2549 17.9786 13.2549ZM7.00069 13.4742C8.77472 13.4742 10.3199 11.8719 10.3199 9.8022C10.3199 7.75159 8.7652 6.23505 7.00069 6.23505C5.2267 6.23505 3.66252 7.78971 3.67204 9.82128C3.67204 11.8719 5.21718 13.4742 7.00069 13.4742ZM1.67862 22.0868H8.92733C7.93543 20.6466 9.14671 17.7472 11.1973 16.1639C10.1387 15.4581 8.77472 14.9335 6.99117 14.9335C2.68965 14.9335 0 18.1096 0 20.7515C0 21.6099 0.476868 22.0868 1.67862 22.0868ZM11.9794 22.0868H23.9683C25.4657 22.0868 26 21.6576 26 20.8183C26 18.3575 22.9192 14.9621 17.9691 14.9621C13.0286 14.9621 9.94788 18.3575 9.94788 20.8183C9.94788 21.6576 10.482 22.0868 11.9794 22.0868Z" fill="#7F7F7F"/>
</g>
<defs>
<clipPath id="clip0_39_145">
<rect width="26" height="26" fill="white"/>
</clipPath>
</defs>
</svg>
