<svg width="26" height="26" viewBox="0 0 26 26" fill="none" xmlns="http://www.w3.org/2000/svg">
<path d="M8.42967 17.5322C11.5745 20.6771 15.4049 23.1037 18.5279 23.1037C19.9317 23.1037 21.1613 22.614 22.1515 21.5258C22.7281 20.8838 23.0874 20.133 23.0874 19.393C23.0874 18.8489 22.8806 18.3266 22.3582 17.9566L19.0284 15.5844C18.517 15.2362 18.0926 15.0621 17.7009 15.0621C17.2003 15.0621 16.765 15.345 16.2645 15.8347L15.4919 16.5964C15.3722 16.7161 15.2199 16.7705 15.0784 16.7705C14.9043 16.7705 14.7519 16.7052 14.6323 16.6508C13.9685 16.2917 12.815 15.3015 11.7377 14.2351C10.6713 13.1687 9.68106 12.0152 9.33285 11.3406C9.26757 11.2209 9.21316 11.0685 9.21316 10.9053C9.21316 10.7638 9.2567 10.6224 9.3764 10.5027L10.1381 9.70832C10.6278 9.20772 10.9107 8.77245 10.9107 8.27191C10.9107 7.88019 10.7366 7.45579 10.3775 6.94438L8.03791 3.64721C7.65706 3.12488 7.12387 2.89636 6.53627 2.89636C5.81807 2.89636 5.06722 3.2228 4.43607 3.84309C3.38057 4.85509 2.91266 6.10648 2.91266 7.48843C2.91266 10.6115 5.29574 14.3983 8.42967 17.5322Z" fill="#7F7F7F"/>
</svg>
