<svg width="55" height="55" viewBox="0 0 55 55" fill="none" xmlns="http://www.w3.org/2000/svg">
<path d="M39.7518 39.478L39.7517 39.478C39.458 39.436 39.1602 39.3954 38.8592 39.3563L38.859 39.3562C38.1662 39.2665 37.5308 39.7552 37.4407 40.4486L37.4407 40.4487C37.3507 41.142 37.8398 41.777 38.533 41.8671L38.5331 41.8671C38.8234 41.9047 39.1101 41.9438 39.3931 41.9844L39.3937 41.9845C39.4536 41.9929 39.5137 41.9973 39.5737 41.9973C40.1936 41.9973 40.7352 41.5419 40.8256 40.9105L40.8256 40.9105C40.9247 40.2184 40.4438 39.5772 39.7518 39.478Z" fill="white" stroke="white" stroke-width="0.5"/>
<path d="M26.7927 46.9937L26.7927 46.9938C27.0112 47.1476 27.2666 47.2244 27.5213 47.2244C27.7762 47.2244 28.0313 47.1476 28.2499 46.9938C28.4289 46.8679 32.4868 43.9889 36.599 39.1567C39.0245 36.3065 40.9629 33.3641 42.3577 30.4105L42.1316 30.3037L42.3577 30.4105C44.1185 26.6818 45.0144 22.9243 45.0144 19.2432C45.0144 9.5972 37.1672 1.75 27.5213 1.75C17.8755 1.75 10.0283 9.59719 10.0283 19.2431C10.0283 22.9242 10.9242 26.6816 12.685 30.4104L12.911 30.3036L12.685 30.4104C14.0678 33.3386 15.9848 36.2557 18.3811 39.0829C14.2288 39.4861 10.6181 40.1656 7.84189 41.0763C5.96137 41.6931 4.52161 42.4019 3.54753 43.206C2.56964 44.0133 2.04358 44.9331 2.04358 45.9585C2.04358 47.1672 2.78029 48.2211 4.12953 49.1215C5.47788 50.0213 7.47556 50.7957 10.0953 51.4477C14.7717 52.6115 20.9603 53.25 27.5213 53.25C34.0824 53.25 40.271 52.6115 44.9474 51.4477C47.5671 50.7957 49.5648 50.0213 50.9132 49.1215C52.2624 48.2211 52.9991 47.1672 52.9991 45.9585C52.9991 44.6495 52.1447 43.5255 50.5864 42.5796C49.0267 41.6328 46.7134 40.8318 43.6748 40.1738C42.9917 40.0258 42.3176 40.4599 42.1696 41.1432C42.0217 41.8265 42.4556 42.5004 43.139 42.6484C46.1015 43.29 47.9562 44.0052 49.0635 44.6325C49.6173 44.9463 49.9764 45.2336 50.1937 45.472C50.4167 45.7166 50.4672 45.8832 50.4672 45.9585C50.4672 46.0331 50.4243 46.1834 50.2404 46.4008C50.06 46.6139 49.7609 46.8708 49.2975 47.154C48.3707 47.7203 46.8173 48.3733 44.336 48.9908C39.8664 50.1031 33.8949 50.7182 27.5213 50.7182C21.1478 50.7182 15.1763 50.1031 10.7067 48.9908C8.22537 48.3733 6.67195 47.7203 5.7452 47.154C5.28175 46.8708 4.98268 46.6139 4.80233 46.4008C4.61838 46.1834 4.57551 46.0331 4.57551 45.9585C4.57551 45.8792 4.61292 45.749 4.74718 45.5702C4.87968 45.3937 5.09432 45.1867 5.41398 44.9595C6.05317 44.5051 7.08456 43.9893 8.63095 43.4821C11.5808 42.5145 15.7869 41.7915 20.5132 41.4427C23.8204 44.8851 26.6435 46.8887 26.7927 46.9937ZM12.5601 19.2431C12.5601 10.9936 19.2719 4.28183 27.5213 4.28183C35.7708 4.28183 42.4826 10.9936 42.4826 19.2431C42.4826 26.7286 38.2665 33.2816 34.7029 37.4781C31.7939 40.9038 28.8501 43.3428 27.5209 44.3757C26.198 43.3485 23.2764 40.929 20.3718 37.5159C16.7937 33.3111 12.5601 26.7452 12.5601 19.2431Z" fill="white" stroke="white" stroke-width="0.5"/>
<path d="M27.5214 10.8531C22.8949 10.8531 19.1313 14.6166 19.1313 19.2432C19.1313 23.8697 22.8949 27.6331 27.5214 27.6331C32.1478 27.6331 35.9114 23.8696 35.9114 19.2431C35.9114 14.6165 32.1478 10.8531 27.5214 10.8531ZM27.5214 25.1013C24.2914 25.1013 21.6631 22.4732 21.6631 19.2431C21.6631 16.0131 24.2913 13.3849 27.5214 13.3849C30.7513 13.3849 33.3796 16.0131 33.3796 19.2432C33.3796 22.4732 30.7513 25.1013 27.5214 25.1013Z" fill="white" stroke="white" stroke-width="0.5"/>
</svg>
