<svg width="1440" height="481" viewBox="0 0 1440 481" fill="none" xmlns="http://www.w3.org/2000/svg">
<path d="M-23 137.451C-9.66667 117.617 26.6 73.9506 65 57.9506C113 37.9506 163.5 27.4506 205.5 82.4506C239.1 126.451 289.833 326.451 311 420.951C319.333 461.451 376.026 529.508 409.5 420.951C452.5 281.5 453.14 109.278 523.5 57.9506C584.5 13.4507 651.5 15.4507 675.5 82.4506C771 175.5 753 395.051 813 435.451C873 475.851 918.5 171.5 983.5 49.4506C1005 6.45058 1063.4 -47.1494 1125 82.4506C1202 244.451 1222 387.45 1248 420.951C1274 454.451 1325 458.45 1346.5 420.951C1368 383.451 1427 94.4507 1462 146.451" stroke="white" stroke-width="2"/>
</svg>
