<svg width="269" height="693" viewBox="0 0 269 693" fill="none" xmlns="http://www.w3.org/2000/svg">
<path d="M201 692C182.5 658.5 98.1864 639.247 78.1201 622.559C53.9998 602.5 7.75914 558.199 39.4999 531.5C64.8925 510.141 180.314 477.89 234.85 464.435C238.89 463.438 269.718 401.045 261.35 395.469C191.232 348.745 81.4826 367.727 51.8611 323C26.18 284.223 29.2277 276.413 61.5001 249.69C103.34 215.045 241.903 206.464 265.218 168.322C288.533 130.181 108.5 15.5 53.5001 25.5" stroke="white" stroke-width="2"/>
<path d="M189 691C148 651.5 38.0001 633.5 16.453 614.881C-8.23143 593.552 -1.14871 552.266 30.5921 525.567C55.9847 504.208 171.406 471.957 225.942 458.502C249.315 453.204 291.735 414.101 229.086 392.822C148.609 365.487 49.2188 365.08 19.5973 320.353C-6.08385 281.576 5.33402 260.257 44 245C113.5 190 240.637 192.642 263.952 154.5C287.267 116.359 137 15.5 36 1" stroke="white" stroke-width="2"/>
</svg>
