<svg width="1440" height="441" viewBox="0 0 1440 441" fill="none" xmlns="http://www.w3.org/2000/svg">
<path d="M-23 137.5C-9.66667 117.667 26.6 73.9999 65 57.9999C113 37.9999 163.5 27.4999 205.5 82.4999C239.1 126.5 289.833 326.5 311 421C309.422 414 405 428.439 409.5 421C483 299.5 453.14 109.328 523.5 57.9999C584.5 13.5 661 15.5 685 82.4999C739.5 155 753 395.1 813 435.5C873 475.9 906.5 190 983.5 49.4999C1005 6.49989 1063.4 -47.1001 1125 82.4999C1202 244.5 1222 387.5 1248 421C1259.64 436 1331.59 447 1346.5 421C1368 383.5 1427 94.5 1462 146.5" stroke="white" stroke-width="2"/>
</svg>
