<svg width="668" height="13" viewBox="0 0 668 13" fill="none" xmlns="http://www.w3.org/2000/svg">
<path d="M9.32944 0.39255L1.22923 10.9851C0.726041 11.6432 1.19523 12.5926 2.02358 12.5926H10.593C10.9179 12.5926 11.2225 12.4347 11.4099 12.1693L18.887 1.57668C19.3546 0.91427 18.8809 0 18.0701 0H10.1238C9.81233 0 9.51865 0.145131 9.32944 0.39255Z" fill="white"/>
<path d="M27.8294 0.39255L19.7292 10.9851C19.226 11.6432 19.6952 12.5926 20.5236 12.5926H29.093C29.4179 12.5926 29.7225 12.4347 29.9099 12.1693L37.387 1.57668C37.8546 0.91427 37.3809 0 36.5701 0H28.6238C28.3123 0 28.0186 0.145131 27.8294 0.39255Z" fill="white"/>
<path d="M46.3294 0.39255L38.2292 10.9851C37.726 11.6432 38.1952 12.5926 39.0236 12.5926H47.593C47.9179 12.5926 48.2225 12.4347 48.4099 12.1693L55.887 1.57668C56.3546 0.91427 55.8809 0 55.0701 0H47.1238C46.8123 0 46.5186 0.145131 46.3294 0.39255Z" fill="white"/>
<path d="M64.8294 0.39255L56.7292 10.9851C56.226 11.6432 56.6952 12.5926 57.5236 12.5926H66.093C66.4179 12.5926 66.7225 12.4347 66.9099 12.1693L74.387 1.57668C74.8546 0.91427 74.3809 0 73.5701 0H65.6238C65.3123 0 65.0186 0.145131 64.8294 0.39255Z" fill="white"/>
<path d="M83.3294 0.39255L75.2292 10.9851C74.726 11.6432 75.1952 12.5926 76.0236 12.5926H84.593C84.9179 12.5926 85.2225 12.4347 85.4099 12.1693L92.887 1.57668C93.3546 0.91427 92.8809 0 92.0701 0H84.1238C83.8123 0 83.5186 0.145131 83.3294 0.39255Z" fill="white"/>
<path d="M101.829 0.39255L93.7292 10.9851C93.226 11.6432 93.6952 12.5926 94.5236 12.5926H103.093C103.418 12.5926 103.723 12.4347 103.91 12.1693L111.387 1.57668C111.855 0.91427 111.381 0 110.57 0H102.624C102.312 0 102.019 0.145131 101.829 0.39255Z" fill="white"/>
<path d="M120.329 0.39255L112.229 10.9851C111.726 11.6432 112.195 12.5926 113.024 12.5926H121.593C121.918 12.5926 122.223 12.4347 122.41 12.1693L129.887 1.57668C130.355 0.91427 129.881 0 129.07 0H121.124C120.812 0 120.519 0.145131 120.329 0.39255Z" fill="white"/>
<path d="M138.829 0.39255L130.729 10.9851C130.226 11.6432 130.695 12.5926 131.524 12.5926H140.093C140.418 12.5926 140.723 12.4347 140.91 12.1693L148.387 1.57668C148.855 0.91427 148.381 0 147.57 0H139.624C139.312 0 139.019 0.145131 138.829 0.39255Z" fill="white"/>
<path d="M157.329 0.39255L149.229 10.9851C148.726 11.6432 149.195 12.5926 150.024 12.5926H158.593C158.918 12.5926 159.223 12.4347 159.41 12.1693L166.887 1.57668C167.355 0.91427 166.881 0 166.07 0H158.124C157.812 0 157.519 0.145131 157.329 0.39255Z" fill="white"/>
<path d="M175.829 0.39255L167.729 10.9851C167.226 11.6432 167.695 12.5926 168.524 12.5926H177.093C177.418 12.5926 177.723 12.4347 177.91 12.1693L185.387 1.57668C185.855 0.91427 185.381 0 184.57 0H176.624C176.312 0 176.019 0.145131 175.829 0.39255Z" fill="white"/>
<path d="M194.329 0.39255L186.229 10.9851C185.726 11.6432 186.195 12.5926 187.024 12.5926H195.593C195.918 12.5926 196.223 12.4347 196.41 12.1693L203.887 1.57668C204.355 0.91427 203.881 0 203.07 0H195.124C194.812 0 194.519 0.145131 194.329 0.39255Z" fill="white"/>
<path d="M212.829 0.39255L204.729 10.9851C204.226 11.6432 204.695 12.5926 205.524 12.5926H214.093C214.418 12.5926 214.723 12.4347 214.91 12.1693L222.387 1.57668C222.855 0.91427 222.381 0 221.57 0H213.624C213.312 0 213.019 0.145131 212.829 0.39255Z" fill="white"/>
<path d="M231.329 0.39255L223.229 10.9851C222.726 11.6432 223.195 12.5926 224.024 12.5926H232.593C232.918 12.5926 233.223 12.4347 233.41 12.1693L240.887 1.57668C241.355 0.91427 240.881 0 240.07 0H232.124C231.812 0 231.519 0.145131 231.329 0.39255Z" fill="white"/>
<path d="M249.829 0.39255L241.729 10.9851C241.226 11.6432 241.695 12.5926 242.524 12.5926H251.093C251.418 12.5926 251.723 12.4347 251.91 12.1693L259.387 1.57668C259.855 0.91427 259.381 0 258.57 0H250.624C250.312 0 250.019 0.145131 249.829 0.39255Z" fill="white"/>
<path d="M268.329 0.39255L260.229 10.9851C259.726 11.6432 260.195 12.5926 261.024 12.5926H269.593C269.918 12.5926 270.223 12.4347 270.41 12.1693L277.887 1.57668C278.355 0.91427 277.881 0 277.07 0H269.124C268.812 0 268.519 0.145131 268.329 0.39255Z" fill="white"/>
<path d="M286.829 0.39255L278.729 10.9851C278.226 11.6432 278.695 12.5926 279.524 12.5926H288.093C288.418 12.5926 288.723 12.4347 288.91 12.1693L296.387 1.57668C296.855 0.91427 296.381 0 295.57 0H287.624C287.312 0 287.019 0.145131 286.829 0.39255Z" fill="white"/>
<path d="M305.329 0.39255L297.229 10.9851C296.726 11.6432 297.195 12.5926 298.024 12.5926H306.593C306.918 12.5926 307.223 12.4347 307.41 12.1693L314.887 1.57668C315.355 0.91427 314.881 0 314.07 0H306.124C305.812 0 305.519 0.145131 305.329 0.39255Z" fill="white"/>
<path d="M323.829 0.39255L315.729 10.9851C315.226 11.6432 315.695 12.5926 316.524 12.5926H325.093C325.418 12.5926 325.723 12.4347 325.91 12.1693L333.387 1.57668C333.855 0.91427 333.381 0 332.57 0H324.624C324.312 0 324.019 0.145131 323.829 0.39255Z" fill="white"/>
<path d="M342.329 0.39255L334.229 10.9851C333.726 11.6432 334.195 12.5926 335.024 12.5926H343.593C343.918 12.5926 344.223 12.4347 344.41 12.1693L351.887 1.57668C352.355 0.91427 351.881 0 351.07 0H343.124C342.812 0 342.519 0.145131 342.329 0.39255Z" fill="white"/>
<path d="M360.829 0.39255L352.729 10.9851C352.226 11.6432 352.695 12.5926 353.524 12.5926H362.093C362.418 12.5926 362.723 12.4347 362.91 12.1693L370.387 1.57668C370.855 0.91427 370.381 0 369.57 0H361.624C361.312 0 361.019 0.145131 360.829 0.39255Z" fill="white"/>
<path d="M379.329 0.39255L371.229 10.9851C370.726 11.6432 371.195 12.5926 372.024 12.5926H380.593C380.918 12.5926 381.223 12.4347 381.41 12.1693L388.887 1.57668C389.355 0.91427 388.881 0 388.07 0H380.124C379.812 0 379.519 0.145131 379.329 0.39255Z" fill="white"/>
<path d="M397.829 0.39255L389.729 10.9851C389.226 11.6432 389.695 12.5926 390.524 12.5926H399.093C399.418 12.5926 399.723 12.4347 399.91 12.1693L407.387 1.57668C407.855 0.91427 407.381 0 406.57 0H398.624C398.312 0 398.019 0.145131 397.829 0.39255Z" fill="white"/>
<path d="M416.329 0.39255L408.229 10.9851C407.726 11.6432 408.195 12.5926 409.024 12.5926H417.593C417.918 12.5926 418.223 12.4347 418.41 12.1693L425.887 1.57668C426.355 0.91427 425.881 0 425.07 0H417.124C416.812 0 416.519 0.145131 416.329 0.39255Z" fill="white"/>
<path d="M434.829 0.39255L426.729 10.9851C426.226 11.6432 426.695 12.5926 427.524 12.5926H436.093C436.418 12.5926 436.723 12.4347 436.91 12.1693L444.387 1.57668C444.855 0.91427 444.381 0 443.57 0H435.624C435.312 0 435.019 0.145131 434.829 0.39255Z" fill="white"/>
<path d="M453.329 0.39255L445.229 10.9851C444.726 11.6432 445.195 12.5926 446.024 12.5926H454.593C454.918 12.5926 455.223 12.4347 455.41 12.1693L462.887 1.57668C463.355 0.91427 462.881 0 462.07 0H454.124C453.812 0 453.519 0.145131 453.329 0.39255Z" fill="white"/>
<path d="M471.829 0.39255L463.729 10.9851C463.226 11.6432 463.695 12.5926 464.524 12.5926H473.093C473.418 12.5926 473.723 12.4347 473.91 12.1693L481.387 1.57668C481.855 0.91427 481.381 0 480.57 0H472.624C472.312 0 472.019 0.145131 471.829 0.39255Z" fill="white"/>
<path d="M490.329 0.39255L482.229 10.9851C481.726 11.6432 482.195 12.5926 483.024 12.5926H491.593C491.918 12.5926 492.223 12.4347 492.41 12.1693L499.887 1.57668C500.355 0.91427 499.881 0 499.07 0H491.124C490.812 0 490.519 0.145131 490.329 0.39255Z" fill="white"/>
<path d="M508.829 0.39255L500.729 10.9851C500.226 11.6432 500.695 12.5926 501.524 12.5926H510.093C510.418 12.5926 510.723 12.4347 510.91 12.1693L518.387 1.57668C518.855 0.91427 518.381 0 517.57 0H509.624C509.312 0 509.019 0.145131 508.829 0.39255Z" fill="white"/>
<path d="M527.329 0.39255L519.229 10.9851C518.726 11.6432 519.195 12.5926 520.024 12.5926H528.593C528.918 12.5926 529.223 12.4347 529.41 12.1693L536.887 1.57668C537.355 0.91427 536.881 0 536.07 0H528.124C527.812 0 527.519 0.145131 527.329 0.39255Z" fill="white"/>
<path d="M545.829 0.39255L537.729 10.9851C537.226 11.6432 537.695 12.5926 538.524 12.5926H547.093C547.418 12.5926 547.723 12.4347 547.91 12.1693L555.387 1.57668C555.855 0.91427 555.381 0 554.57 0H546.624C546.312 0 546.019 0.145131 545.829 0.39255Z" fill="white"/>
<path d="M564.329 0.39255L556.229 10.9851C555.726 11.6432 556.195 12.5926 557.024 12.5926H565.593C565.918 12.5926 566.223 12.4347 566.41 12.1693L573.887 1.57668C574.355 0.91427 573.881 0 573.07 0H565.124C564.812 0 564.519 0.145131 564.329 0.39255Z" fill="white"/>
<path d="M582.829 0.39255L574.729 10.9851C574.226 11.6432 574.695 12.5926 575.524 12.5926H584.093C584.418 12.5926 584.723 12.4347 584.91 12.1693L592.387 1.57668C592.855 0.91427 592.381 0 591.57 0H583.624C583.312 0 583.019 0.145131 582.829 0.39255Z" fill="white"/>
<path d="M601.329 0.39255L593.229 10.9851C592.726 11.6432 593.195 12.5926 594.024 12.5926H602.593C602.918 12.5926 603.223 12.4347 603.41 12.1693L610.887 1.57668C611.355 0.91427 610.881 0 610.07 0H602.124C601.812 0 601.519 0.145131 601.329 0.39255Z" fill="white"/>
<path d="M619.829 0.39255L611.729 10.9851C611.226 11.6432 611.695 12.5926 612.524 12.5926H621.093C621.418 12.5926 621.723 12.4347 621.91 12.1693L629.387 1.57668C629.855 0.91427 629.381 0 628.57 0H620.624C620.312 0 620.019 0.145131 619.829 0.39255Z" fill="white"/>
<path d="M638.329 0.39255L630.229 10.9851C629.726 11.6432 630.195 12.5926 631.024 12.5926H639.593C639.918 12.5926 640.223 12.4347 640.41 12.1693L647.887 1.57668C648.355 0.91427 647.881 0 647.07 0H639.124C638.812 0 638.519 0.145131 638.329 0.39255Z" fill="white"/>
<path d="M656.829 0.39255L648.729 10.9851C648.226 11.6432 648.695 12.5926 649.524 12.5926H658.093C658.418 12.5926 658.723 12.4347 658.91 12.1693L666.387 1.57668C666.855 0.91427 666.381 0 665.57 0H657.624C657.312 0 657.019 0.145131 656.829 0.39255Z" fill="white"/>
</svg>
