<svg width="20" height="20" viewBox="0 0 20 20" fill="none" xmlns="http://www.w3.org/2000/svg">
<path d="M16.1659 12.3796C15.4939 12.2346 14.9629 12.5466 14.4919 12.8186C14.0099 13.0986 13.0939 13.8426 12.5689 13.6526C9.87991 12.5456 7.35091 10.1916 6.25591 7.49256C6.0629 6.95556 6.80291 6.03256 7.08191 5.54556C7.35191 5.07356 7.65791 4.53756 7.51791 3.86055C7.39191 3.25255 5.7639 1.18055 5.1879 0.614548C4.8089 0.239547 4.4199 0.0345466 4.0199 0.00154652C2.5199 -0.0634536 0.842895 1.93955 0.548894 2.41855C-0.187107 3.44055 -0.183107 4.80056 0.561894 6.44856C2.3569 10.8786 9.14691 17.5606 13.5919 19.4236C14.4119 19.8076 15.1619 19.9996 15.8369 19.9996C16.4959 19.9996 17.0829 19.8156 17.5869 19.4506C17.9679 19.2306 20.0539 17.4706 19.9989 15.9306C19.9659 15.5366 19.7609 15.1436 19.3909 14.7636C18.8289 14.1826 16.7709 12.5056 16.1669 12.3786L16.1659 12.3796Z" fill="#F10175"/>
</svg>
