<svg width="200" height="5" viewBox="0 0 200 5" fill="none" xmlns="http://www.w3.org/2000/svg">
<path d="M3.07018 0.39255L1.22923 2.79996C0.726041 3.45797 1.19523 4.40741 2.02359 4.40741H3.37073C3.69566 4.40741 4.00032 4.24954 4.1877 3.98409L5.88705 1.57668C6.35463 0.91427 5.8809 0 5.07008 0H3.86454C3.55307 0 3.25939 0.145131 3.07018 0.39255Z" fill="white"/>
<path d="M8.57018 0.39255L6.72923 2.79996C6.22604 3.45797 6.69523 4.40741 7.52359 4.40741H8.87073C9.19566 4.40741 9.50032 4.24954 9.6877 3.98409L11.387 1.57668C11.8546 0.91427 11.3809 0 10.5701 0H9.36454C9.05307 0 8.75939 0.145131 8.57018 0.39255Z" fill="white"/>
<path d="M14.0702 0.39255L12.2292 2.79996C11.726 3.45797 12.1952 4.40741 13.0236 4.40741H14.3707C14.6957 4.40741 15.0003 4.24954 15.1877 3.98409L16.887 1.57668C17.3546 0.91427 16.8809 0 16.0701 0H14.8645C14.5531 0 14.2594 0.145131 14.0702 0.39255Z" fill="white"/>
<path d="M19.5702 0.39255L17.7292 2.79996C17.226 3.45797 17.6952 4.40741 18.5236 4.40741H19.8707C20.1957 4.40741 20.5003 4.24954 20.6877 3.98409L22.387 1.57668C22.8546 0.91427 22.3809 0 21.5701 0H20.3645C20.0531 0 19.7594 0.145131 19.5702 0.39255Z" fill="white"/>
<path d="M25.0702 0.39255L23.2292 2.79996C22.726 3.45797 23.1952 4.40741 24.0236 4.40741H25.3707C25.6957 4.40741 26.0003 4.24954 26.1877 3.98409L27.887 1.57668C28.3546 0.91427 27.8809 0 27.0701 0H25.8645C25.5531 0 25.2594 0.145131 25.0702 0.39255Z" fill="white"/>
<path d="M30.5702 0.39255L28.7292 2.79996C28.226 3.45797 28.6952 4.40741 29.5236 4.40741H30.8707C31.1957 4.40741 31.5003 4.24954 31.6877 3.98409L33.387 1.57668C33.8546 0.91427 33.3809 0 32.5701 0H31.3645C31.0531 0 30.7594 0.145131 30.5702 0.39255Z" fill="white"/>
<path d="M36.0702 0.39255L34.2292 2.79996C33.726 3.45797 34.1952 4.40741 35.0236 4.40741H36.3707C36.6957 4.40741 37.0003 4.24954 37.1877 3.98409L38.887 1.57668C39.3546 0.91427 38.8809 0 38.0701 0H36.8645C36.5531 0 36.2594 0.145131 36.0702 0.39255Z" fill="white"/>
<path d="M41.5702 0.39255L39.7292 2.79996C39.226 3.45797 39.6952 4.40741 40.5236 4.40741H41.8707C42.1957 4.40741 42.5003 4.24954 42.6877 3.98409L44.387 1.57668C44.8546 0.91427 44.3809 0 43.5701 0H42.3645C42.0531 0 41.7594 0.145131 41.5702 0.39255Z" fill="white"/>
<path d="M47.0702 0.39255L45.2292 2.79996C44.726 3.45797 45.1952 4.40741 46.0236 4.40741H47.3707C47.6957 4.40741 48.0003 4.24954 48.1877 3.98409L49.887 1.57668C50.3546 0.91427 49.8809 0 49.0701 0H47.8645C47.5531 0 47.2594 0.145131 47.0702 0.39255Z" fill="white"/>
<path d="M52.5702 0.39255L50.7292 2.79996C50.226 3.45797 50.6952 4.40741 51.5236 4.40741H52.8707C53.1957 4.40741 53.5003 4.24954 53.6877 3.98409L55.387 1.57668C55.8546 0.91427 55.3809 0 54.5701 0H53.3645C53.0531 0 52.7594 0.145131 52.5702 0.39255Z" fill="white"/>
<path d="M58.0702 0.39255L56.2292 2.79996C55.726 3.45797 56.1952 4.40741 57.0236 4.40741H58.3707C58.6957 4.40741 59.0003 4.24954 59.1877 3.98409L60.887 1.57668C61.3546 0.91427 60.8809 0 60.0701 0H58.8645C58.5531 0 58.2594 0.145131 58.0702 0.39255Z" fill="white"/>
<path d="M63.5702 0.39255L61.7292 2.79996C61.226 3.45797 61.6952 4.40741 62.5236 4.40741H63.8707C64.1957 4.40741 64.5003 4.24954 64.6877 3.98409L66.387 1.57668C66.8546 0.91427 66.3809 0 65.5701 0H64.3645C64.0531 0 63.7594 0.145131 63.5702 0.39255Z" fill="white"/>
<path d="M69.0702 0.39255L67.2292 2.79996C66.726 3.45797 67.1952 4.40741 68.0236 4.40741H69.3707C69.6957 4.40741 70.0003 4.24954 70.1877 3.98409L71.887 1.57668C72.3546 0.91427 71.8809 0 71.0701 0H69.8645C69.5531 0 69.2594 0.145131 69.0702 0.39255Z" fill="white"/>
<path d="M74.5702 0.39255L72.7292 2.79996C72.226 3.45797 72.6952 4.40741 73.5236 4.40741H74.8707C75.1957 4.40741 75.5003 4.24954 75.6877 3.98409L77.387 1.57668C77.8546 0.91427 77.3809 0 76.5701 0H75.3645C75.0531 0 74.7594 0.145131 74.5702 0.39255Z" fill="white"/>
<path d="M80.0702 0.39255L78.2292 2.79996C77.726 3.45797 78.1952 4.40741 79.0236 4.40741H80.3707C80.6957 4.40741 81.0003 4.24954 81.1877 3.98409L82.887 1.57668C83.3546 0.91427 82.8809 0 82.0701 0H80.8645C80.5531 0 80.2594 0.145131 80.0702 0.39255Z" fill="white"/>
<path d="M85.5702 0.39255L83.7292 2.79996C83.226 3.45797 83.6952 4.40741 84.5236 4.40741H85.8707C86.1957 4.40741 86.5003 4.24954 86.6877 3.98409L88.387 1.57668C88.8546 0.91427 88.3809 0 87.5701 0H86.3645C86.0531 0 85.7594 0.145131 85.5702 0.39255Z" fill="white"/>
<path d="M91.0702 0.39255L89.2292 2.79996C88.726 3.45797 89.1952 4.40741 90.0236 4.40741H91.3707C91.6957 4.40741 92.0003 4.24954 92.1877 3.98409L93.887 1.57668C94.3546 0.91427 93.8809 0 93.0701 0H91.8645C91.5531 0 91.2594 0.145131 91.0702 0.39255Z" fill="white"/>
<path d="M96.5702 0.39255L94.7292 2.79996C94.226 3.45797 94.6952 4.40741 95.5236 4.40741H96.8707C97.1957 4.40741 97.5003 4.24954 97.6877 3.98409L99.387 1.57668C99.8546 0.91427 99.3809 0 98.5701 0H97.3645C97.0531 0 96.7594 0.145131 96.5702 0.39255Z" fill="white"/>
<path d="M102.07 0.39255L100.229 2.79996C99.726 3.45797 100.195 4.40741 101.024 4.40741H102.371C102.696 4.40741 103 4.24954 103.188 3.98409L104.887 1.57668C105.355 0.91427 104.881 0 104.07 0H102.865C102.553 0 102.259 0.145131 102.07 0.39255Z" fill="white"/>
<path d="M107.57 0.39255L105.729 2.79996C105.226 3.45797 105.695 4.40741 106.524 4.40741H107.871C108.196 4.40741 108.5 4.24954 108.688 3.98409L110.387 1.57668C110.855 0.91427 110.381 0 109.57 0H108.365C108.053 0 107.759 0.145131 107.57 0.39255Z" fill="white"/>
<path d="M113.07 0.39255L111.229 2.79996C110.726 3.45797 111.195 4.40741 112.024 4.40741H113.371C113.696 4.40741 114 4.24954 114.188 3.98409L115.887 1.57668C116.355 0.91427 115.881 0 115.07 0H113.865C113.553 0 113.259 0.145131 113.07 0.39255Z" fill="white"/>
<path d="M118.57 0.39255L116.729 2.79996C116.226 3.45797 116.695 4.40741 117.524 4.40741H118.871C119.196 4.40741 119.5 4.24954 119.688 3.98409L121.387 1.57668C121.855 0.91427 121.381 0 120.57 0H119.365C119.053 0 118.759 0.145131 118.57 0.39255Z" fill="white"/>
<path d="M124.07 0.39255L122.229 2.79996C121.726 3.45797 122.195 4.40741 123.024 4.40741H124.371C124.696 4.40741 125 4.24954 125.188 3.98409L126.887 1.57668C127.355 0.91427 126.881 0 126.07 0H124.865C124.553 0 124.259 0.145131 124.07 0.39255Z" fill="white"/>
<path d="M129.57 0.39255L127.729 2.79996C127.226 3.45797 127.695 4.40741 128.524 4.40741H129.871C130.196 4.40741 130.5 4.24954 130.688 3.98409L132.387 1.57668C132.855 0.91427 132.381 0 131.57 0H130.365C130.053 0 129.759 0.145131 129.57 0.39255Z" fill="white"/>
<path d="M135.07 0.39255L133.229 2.79996C132.726 3.45797 133.195 4.40741 134.024 4.40741H135.371C135.696 4.40741 136 4.24954 136.188 3.98409L137.887 1.57668C138.355 0.91427 137.881 0 137.07 0H135.865C135.553 0 135.259 0.145131 135.07 0.39255Z" fill="white"/>
<path d="M140.57 0.39255L138.729 2.79996C138.226 3.45797 138.695 4.40741 139.524 4.40741H140.871C141.196 4.40741 141.5 4.24954 141.688 3.98409L143.387 1.57668C143.855 0.91427 143.381 0 142.57 0H141.365C141.053 0 140.759 0.145131 140.57 0.39255Z" fill="white"/>
<path d="M146.07 0.39255L144.229 2.79996C143.726 3.45797 144.195 4.40741 145.024 4.40741H146.371C146.696 4.40741 147 4.24954 147.188 3.98409L148.887 1.57668C149.355 0.91427 148.881 0 148.07 0H146.865C146.553 0 146.259 0.145131 146.07 0.39255Z" fill="white"/>
<path d="M151.57 0.39255L149.729 2.79996C149.226 3.45797 149.695 4.40741 150.524 4.40741H151.871C152.196 4.40741 152.5 4.24954 152.688 3.98409L154.387 1.57668C154.855 0.91427 154.381 0 153.57 0H152.365C152.053 0 151.759 0.145131 151.57 0.39255Z" fill="white"/>
<path d="M157.07 0.39255L155.229 2.79996C154.726 3.45797 155.195 4.40741 156.024 4.40741H157.371C157.696 4.40741 158 4.24954 158.188 3.98409L159.887 1.57668C160.355 0.91427 159.881 0 159.07 0H157.865C157.553 0 157.259 0.145131 157.07 0.39255Z" fill="white"/>
<path d="M162.57 0.39255L160.729 2.79996C160.226 3.45797 160.695 4.40741 161.524 4.40741H162.871C163.196 4.40741 163.5 4.24954 163.688 3.98409L165.387 1.57668C165.855 0.91427 165.381 0 164.57 0H163.365C163.053 0 162.759 0.145131 162.57 0.39255Z" fill="white"/>
<path d="M168.07 0.39255L166.229 2.79996C165.726 3.45797 166.195 4.40741 167.024 4.40741H168.371C168.696 4.40741 169 4.24954 169.188 3.98409L170.887 1.57668C171.355 0.91427 170.881 0 170.07 0H168.865C168.553 0 168.259 0.145131 168.07 0.39255Z" fill="white"/>
<path d="M173.57 0.39255L171.729 2.79996C171.226 3.45797 171.695 4.40741 172.524 4.40741H173.871C174.196 4.40741 174.5 4.24954 174.688 3.98409L176.387 1.57668C176.855 0.91427 176.381 0 175.57 0H174.365C174.053 0 173.759 0.145131 173.57 0.39255Z" fill="white"/>
<path d="M179.07 0.39255L177.229 2.79996C176.726 3.45797 177.195 4.40741 178.024 4.40741H179.371C179.696 4.40741 180 4.24954 180.188 3.98409L181.887 1.57668C182.355 0.91427 181.881 0 181.07 0H179.865C179.553 0 179.259 0.145131 179.07 0.39255Z" fill="white"/>
<path d="M184.57 0.39255L182.729 2.79996C182.226 3.45797 182.695 4.40741 183.524 4.40741H184.871C185.196 4.40741 185.5 4.24954 185.688 3.98409L187.387 1.57668C187.855 0.91427 187.381 0 186.57 0H185.365C185.053 0 184.759 0.145131 184.57 0.39255Z" fill="white"/>
<path d="M190.07 0.39255L188.229 2.79996C187.726 3.45797 188.195 4.40741 189.024 4.40741H190.371C190.696 4.40741 191 4.24954 191.188 3.98409L192.887 1.57668C193.355 0.91427 192.881 0 192.07 0H190.865C190.553 0 190.259 0.145131 190.07 0.39255Z" fill="white"/>
<path d="M195.57 0.39255L193.729 2.79996C193.226 3.45797 193.695 4.40741 194.524 4.40741H195.871C196.196 4.40741 196.5 4.24954 196.688 3.98409L198.387 1.57668C198.855 0.91427 198.381 0 197.57 0H196.365C196.053 0 195.759 0.145131 195.57 0.39255Z" fill="white"/>
</svg>
