<svg width="32" height="32" viewBox="0 0 32 32" fill="none" xmlns="http://www.w3.org/2000/svg">
<g clip-path="url(#clip0_3_25)">
<path d="M16 0C24.8365 0 32 7.16347 32 16C32 24.8365 24.8365 32 16 32C7.16347 32 0 24.8365 0 16C0 7.16347 7.16347 0 16 0Z" fill="#7F4DA0"/>
<path d="M20.2633 13.9723C20.1854 13.3401 19.9911 12.8437 19.646 12.4039C19.1979 11.8377 18.6253 11.4987 17.7775 11.2976C17.225 11.1635 17.0018 11.1789 16.8019 11.3615C16.6158 11.5325 16.5795 11.8753 16.7217 12.0973C16.8217 12.2585 16.9371 12.3161 17.2581 12.3791C17.6855 12.4578 17.9809 12.5599 18.2496 12.7135C18.8199 13.0428 19.0855 13.5581 19.1139 14.3923C19.1272 14.784 19.161 14.9044 19.2978 15.0433C19.5514 15.2973 20.0027 15.2479 20.1941 14.944C20.2643 14.8295 20.2751 14.7796 20.2825 14.5137C20.2873 14.349 20.2803 14.1039 20.2633 13.9723Z" fill="white"/>
<path d="M22.4969 14.6851C22.3842 12.7482 21.6266 11.1899 20.2707 10.0935C19.5069 9.47733 18.5835 9.05373 17.5713 8.84773C17.2005 8.774 16.5179 8.71433 16.4007 8.74846C16.2902 8.78013 16.1339 8.89973 16.0643 9.008C15.9906 9.12533 15.974 9.38733 16.0368 9.53886C16.1383 9.7922 16.327 9.88173 16.8555 9.928C17.6702 9.99926 18.5105 10.2855 19.1455 10.7093C19.8704 11.1917 20.4466 11.8517 20.8194 12.6271C21.1415 13.2935 21.3395 14.2537 21.3341 15.1135C21.3323 15.4245 21.3803 15.6001 21.5053 15.7285C21.6941 15.9259 21.9693 15.9691 22.2121 15.838C22.4813 15.6965 22.5442 15.448 22.4969 14.6851Z" fill="white"/>
<path d="M24.968 22.1442C24.9302 22.0335 24.8418 21.8627 24.7786 21.7647C24.3807 21.1638 22.2429 19.4908 21.1756 18.9437C20.5661 18.6306 20.1146 18.5263 19.7798 18.6242C19.4198 18.7255 19.2304 18.8931 18.6272 19.6426C18.3841 19.9431 18.1346 20.2245 18.0683 20.2688C17.9041 20.3827 17.582 20.4744 17.3546 20.4744C16.8273 20.4712 15.8704 20.1297 15.1347 19.6805C14.5631 19.3327 13.8306 18.7097 13.2684 18.0929C12.6053 17.3687 12.1538 16.7299 11.7969 16.0088C11.3359 15.0822 11.219 14.5161 11.4116 14.1017C11.459 13.9974 11.5222 13.8867 11.5506 13.8519C11.579 13.8203 11.8758 13.5768 12.2042 13.3111C12.8484 12.7988 12.9526 12.6818 13.0726 12.3307C13.2242 11.8848 13.1832 11.4294 12.9495 10.9709C12.7695 10.6229 12.299 9.86394 11.958 9.37374C11.5064 8.7286 10.3822 7.34974 10.158 7.16307C9.75378 6.8342 9.23598 6.77727 8.66438 6.99867C8.06124 7.23267 6.93078 8.14354 6.4476 8.7792C6.01182 9.3548 5.84451 9.76274 5.81923 10.3003C5.79714 10.7431 5.83501 10.9265 6.0687 11.4927C7.89704 15.9329 10.6254 19.4781 14.3737 22.2929C16.3315 23.7634 18.362 24.883 20.4682 25.6484C21.6966 26.0943 22.2302 26.1164 22.8586 25.7496C23.1239 25.5914 23.7807 24.9178 24.147 24.4276C24.7533 23.6116 24.9775 23.2353 25.0406 22.9349C25.0849 22.7293 25.0502 22.3719 24.968 22.1442Z" fill="white"/>
<path d="M24.7698 15.1299C24.7293 14.0343 24.5448 13.1357 24.1602 12.1337C23.7804 11.1481 23.3961 10.5049 22.6702 9.63506C21.984 8.81946 21.451 8.35373 20.6056 7.8354C19.4262 7.11313 17.9909 6.63515 16.3824 6.43413C15.8338 6.36388 15.7097 6.3689 15.5414 6.48119C15.2153 6.69393 15.2196 7.22447 15.5468 7.434C15.6551 7.50067 15.7512 7.525 16.19 7.5824C16.8636 7.67307 17.2967 7.75853 17.8106 7.8988C19.826 8.44967 21.3758 9.5758 22.4119 11.2475C23.279 12.6407 23.6389 14.0342 23.5878 15.8139C23.57 16.4155 23.583 16.5213 23.6749 16.6659C23.851 16.9353 24.3155 16.9887 24.5538 16.7651C24.702 16.6288 24.73 16.5265 24.7592 16.0116C24.7732 15.7429 24.7762 15.3464 24.7698 15.1299Z" fill="white"/>
</g>
<defs>
<clipPath id="clip0_3_25">
<rect width="32" height="32" fill="white"/>
</clipPath>
</defs>
</svg>
