<svg width="32" height="32" viewBox="0 0 32 32" fill="none" xmlns="http://www.w3.org/2000/svg">
<g clip-path="url(#clip0_3_19)">
<path d="M0.732971 15.6336C0.732971 6.9994 7.73237 0 16.3666 0C25.0007 0 32.0001 6.9994 32.0001 15.6336C32.0001 24.2677 25.0007 31.2672 16.3666 31.2672C7.73237 31.2672 0.732971 24.2677 0.732971 15.6336Z" fill="#4C6C91"/>
<path d="M17.1841 20.7641C17.1841 20.7641 17.4851 20.7313 17.6392 20.5688C17.7803 20.4199 17.7754 20.1389 17.7754 20.1389C17.7754 20.1389 17.7567 18.8267 18.3774 18.6329C18.9891 18.4424 19.7745 19.9019 20.6081 20.4631C21.2377 20.8875 21.7157 20.7946 21.7157 20.7946L23.9431 20.7641C23.9431 20.7641 25.1079 20.6937 24.5556 19.7946C24.5099 19.7209 24.2335 19.1293 22.9 17.914C21.5028 16.6418 21.6904 16.8476 23.3722 14.6467C24.3966 13.3065 24.806 12.4883 24.678 12.1385C24.5565 11.8038 23.8028 11.8927 23.8028 11.8927L21.2956 11.9079C21.2956 11.9079 21.1097 11.8831 20.9718 11.9639C20.8372 12.0431 20.7499 12.2281 20.7499 12.2281C20.7499 12.2281 20.3536 13.2649 19.8243 14.1472C18.7077 16.0078 18.2615 16.1063 18.0788 15.991C17.6539 15.7211 17.76 14.9085 17.76 14.3312C17.76 12.5275 18.0389 11.7758 17.2175 11.5812C16.9451 11.5164 16.7445 11.4739 16.0471 11.4668C15.1524 11.4579 14.3955 11.47 13.9665 11.6757C13.681 11.8126 13.4608 12.1184 13.5954 12.136C13.7609 12.1577 14.1361 12.2353 14.3352 12.5011C14.5921 12.8446 14.5832 13.6147 14.5832 13.6147C14.5832 13.6147 14.7307 15.738 14.2381 16.0014C13.9005 16.1823 13.4372 15.8132 12.4413 14.1247C11.9315 13.2601 11.5465 12.3042 11.5465 12.3042C11.5465 12.3042 11.4724 12.1257 11.3394 12.0296C11.1787 11.9135 10.9544 11.8774 10.9544 11.8774L8.57202 11.8927C8.57202 11.8927 8.21397 11.9023 8.08265 12.0552C7.96602 12.1904 8.07368 12.4715 8.07368 12.4715C8.07368 12.4715 9.93898 16.7555 12.0515 18.9147C13.9885 20.8939 16.1874 20.7641 16.1874 20.7641H17.1841Z" fill="white"/>
</g>
<defs>
<clipPath id="clip0_3_19">
<rect width="32" height="32" fill="white"/>
</clipPath>
</defs>
</svg>
