<svg width="32" height="32" viewBox="0 0 32 32" fill="none" xmlns="http://www.w3.org/2000/svg">
<g clip-path="url(#clip0_3_22)">
<path d="M16 32C24.8365 32 32 24.8365 32 16C32 7.16347 24.8365 0 16 0C7.16347 0 0 7.16347 0 16C0 24.8365 7.16347 32 16 32Z" fill="#25D366"/>
<path fill-rule="evenodd" clip-rule="evenodd" d="M16.5277 24.9017H16.5237C14.9314 24.9011 13.3668 24.5016 11.9771 23.7436L6.93359 25.0667L8.28333 20.1365C7.45073 18.6937 7.01266 17.057 7.01333 15.3801C7.01546 10.1345 11.2835 5.86665 16.5275 5.86665C19.0727 5.86775 21.4615 6.85859 23.2577 8.65693C25.054 10.4552 26.0427 12.8455 26.0417 15.3877C26.0396 20.6322 21.7733 24.8995 16.5277 24.9017ZM12.2109 22.0213L12.4996 22.1926C13.7137 22.9131 15.1055 23.2943 16.5245 23.2949H16.5277C20.8861 23.2949 24.4335 19.7474 24.4353 15.3871C24.4361 13.2741 23.6143 11.2874 22.1214 9.79266C20.6284 8.29793 18.6429 7.47433 16.5307 7.47359C12.1689 7.47359 8.62146 11.0207 8.61973 15.3807C8.61906 16.8749 9.03719 18.3301 9.82873 19.5891L10.0168 19.8883L9.21793 22.8063L12.2109 22.0213ZM20.9952 17.436C21.161 17.5161 21.273 17.5703 21.3208 17.6501C21.3802 17.7492 21.3802 18.2252 21.1822 18.7805C20.984 19.3359 20.0343 19.8427 19.5775 19.9109C19.168 19.9721 18.6497 19.9977 18.0802 19.8167C17.7349 19.7071 17.2922 19.5609 16.725 19.3159C14.4964 18.3536 12.9903 16.1936 12.7056 15.7853C12.6857 15.7567 12.6717 15.7367 12.6639 15.7263L12.6621 15.7238C12.5363 15.5559 11.6933 14.4312 11.6933 13.2672C11.6933 12.1721 12.2311 11.5982 12.4787 11.334C12.4957 11.3159 12.5113 11.2993 12.5253 11.284C12.7432 11.046 13.0007 10.9865 13.1592 10.9865C13.3177 10.9865 13.4763 10.9879 13.6149 10.9949C13.6319 10.9958 13.6497 10.9957 13.6681 10.9955C13.8066 10.9947 13.9793 10.9937 14.1497 11.403C14.2153 11.5605 14.3112 11.794 14.4123 12.0403C14.6169 12.5383 14.8429 13.0885 14.8827 13.1681C14.9421 13.2871 14.9817 13.4259 14.9025 13.5846C14.8906 13.6084 14.8796 13.6309 14.8691 13.6523C14.8095 13.7739 14.7658 13.8632 14.6647 13.9812C14.6251 14.0275 14.584 14.0775 14.5429 14.1275C14.4611 14.2271 14.3794 14.3267 14.3081 14.3977C14.1891 14.5162 14.0653 14.6448 14.2039 14.8828C14.3426 15.1208 14.8197 15.8993 15.5264 16.5297C16.2861 17.2073 16.9464 17.4937 17.2811 17.6388C17.3464 17.6672 17.3993 17.6901 17.4382 17.7096C17.6758 17.8286 17.8145 17.8087 17.9532 17.6501C18.0919 17.4914 18.5475 16.9559 18.7059 16.7179C18.8643 16.4801 19.0229 16.5197 19.2407 16.5989C19.4587 16.6784 20.6275 17.2534 20.8652 17.3724C20.9116 17.3956 20.955 17.4166 20.9952 17.436Z" fill="#FDFDFD"/>
</g>
<defs>
<clipPath id="clip0_3_22">
<rect width="32" height="32" fill="white"/>
</clipPath>
</defs>
</svg>
